<svg xmlns="http://www.w3.org/2000/svg" width="1600" height="900" viewBox="0 0 1600 900">
  <rect width="1600" height="900" fill="#253b31"/>
  <text x="100" y="112" fill="#f5f2e9" font-family="-apple-system, BlinkMacSystemFont, Segoe UI, sans-serif" font-size="48" font-weight="700">Project Incubator</text>
  <text x="100" y="158" fill="#a9bbae" font-family="-apple-system, BlinkMacSystemFont, Segoe UI, sans-serif" font-size="23">从模糊想法到可执行规格的八阶段决策工作流</text>

  <g font-family="-apple-system, BlinkMacSystemFont, Segoe UI, sans-serif">
    <g transform="translate(100 242)">
      <rect width="315" height="170" rx="8" fill="#f7f5ee"/>
      <text x="26" y="42" fill="#9a6b3f" font-size="18" font-weight="700">01</text>
      <text x="26" y="84" fill="#20251f" font-size="27" font-weight="700">领域识别</text>
      <text x="26" y="120" fill="#657067" font-size="18">专家激活 · 深度维度</text>
      <text x="26" y="148" fill="#657067" font-size="18">确认后进入访谈</text>
    </g>
    <g transform="translate(462 242)">
      <rect width="315" height="170" rx="8" fill="#f7f5ee"/>
      <text x="26" y="42" fill="#9a6b3f" font-size="18" font-weight="700">02</text>
      <text x="26" y="84" fill="#20251f" font-size="27" font-weight="700">需求访谈</text>
      <text x="26" y="120" fill="#657067" font-size="18">用户 · 场景 · 约束</text>
      <text x="26" y="148" fill="#657067" font-size="18">多轮澄清，不替用户假设</text>
    </g>
    <g transform="translate(824 242)">
      <rect width="315" height="170" rx="8" fill="#f7f5ee"/>
      <text x="26" y="42" fill="#9a6b3f" font-size="18" font-weight="700">03</text>
      <text x="26" y="84" fill="#20251f" font-size="27" font-weight="700">产品方案</text>
      <text x="26" y="120" fill="#657067" font-size="18">范围 · 流程 · 优先级</text>
      <text x="26" y="148" fill="#657067" font-size="18">方案确认后锁定方向</text>
    </g>
    <g transform="translate(1186 242)">
      <rect width="315" height="170" rx="8" fill="#f7f5ee"/>
      <text x="26" y="42" fill="#9a6b3f" font-size="18" font-weight="700">04</text>
      <text x="26" y="84" fill="#20251f" font-size="27" font-weight="700">视觉预览</text>
      <text x="26" y="120" fill="#657067" font-size="18">3–5 页轻量 HTML</text>
      <text x="26" y="148" fill="#657067" font-size="18">在 PRD 前发现理解偏差</text>
    </g>

    <g transform="translate(100 478)">
      <rect width="315" height="170" rx="8" fill="#e2eadf"/>
      <text x="26" y="42" fill="#496b5a" font-size="18" font-weight="700">05</text>
      <text x="26" y="84" fill="#20251f" font-size="27" font-weight="700">PRD</text>
      <text x="26" y="120" fill="#657067" font-size="18">已确认判断的完整规格</text>
      <text x="26" y="148" fill="#657067" font-size="18">流程 · 状态 · 验收</text>
    </g>
    <g transform="translate(462 478)">
      <rect width="315" height="170" rx="8" fill="#e2eadf"/>
      <text x="26" y="42" fill="#496b5a" font-size="18" font-weight="700">06</text>
      <text x="26" y="84" fill="#20251f" font-size="27" font-weight="700">交互 Demo</text>
      <text x="26" y="120" fill="#657067" font-size="18">可操作高保真原型</text>
      <text x="26" y="148" fill="#657067" font-size="18">验证主流程与关键状态</text>
    </g>
    <g transform="translate(824 478)">
      <rect width="315" height="170" rx="8" fill="#e2eadf"/>
      <text x="26" y="42" fill="#496b5a" font-size="18" font-weight="700">07</text>
      <text x="26" y="84" fill="#20251f" font-size="27" font-weight="700">技术方案</text>
      <text x="26" y="120" fill="#657067" font-size="18">架构 · 数据 · 接口 · 风险</text>
      <text x="26" y="148" fill="#657067" font-size="18">定义实现与验证边界</text>
    </g>
    <g transform="translate(1186 478)">
      <rect width="315" height="170" rx="8" fill="#e2eadf"/>
      <text x="26" y="42" fill="#496b5a" font-size="18" font-weight="700">08</text>
      <text x="26" y="84" fill="#20251f" font-size="27" font-weight="700">实现 Prompt</text>
      <text x="26" y="120" fill="#657067" font-size="18">初始化 · 核心 · 完善</text>
      <text x="26" y="148" fill="#657067" font-size="18">交给 Cursor / Codex 执行</text>
    </g>
  </g>

  <g stroke="#9fb0a3" stroke-width="3" fill="none">
    <path d="M415 327 H452"/>
    <path d="M777 327 H814"/>
    <path d="M1139 327 H1176"/>
    <path d="M1343 412 V455 H258 V468"/>
    <path d="M415 563 H452"/>
    <path d="M777 563 H814"/>
    <path d="M1139 563 H1176"/>
  </g>
  <g fill="#9fb0a3">
    <path d="M452 327 l-12 -7 v14 z"/>
    <path d="M814 327 l-12 -7 v14 z"/>
    <path d="M1176 327 l-12 -7 v14 z"/>
    <path d="M258 468 l-7 -12 h14 z"/>
    <path d="M452 563 l-12 -7 v14 z"/>
    <path d="M814 563 l-12 -7 v14 z"/>
    <path d="M1176 563 l-12 -7 v14 z"/>
  </g>

  <line x1="100" y1="736" x2="1500" y2="736" stroke="#526a5d" stroke-width="2"/>
  <text x="100" y="790" fill="#f5f2e9" font-family="-apple-system, BlinkMacSystemFont, Segoe UI, sans-serif" font-size="24" font-weight="700">每个阶段结束后停止，等待用户确认。</text>
  <text x="100" y="832" fill="#a9bbae" font-family="-apple-system, BlinkMacSystemFont, Segoe UI, sans-serif" font-size="19">领域深度优先 · 视觉方向前置 · 同行批评自检 · 产物按阶段落盘</text>
</svg>
